<svg xmlns="http://www.w3.org/2000/svg" viewBox="0 0 50 18">
  <path fill="#F7931A" d="M11.6,9c0.2-1.4-0.9-2.2-2.4-2.7l0.5-2l-1.2-0.3l-0.5,1.9c-0.3-0.1-0.6-0.1-0.9-0.2l0.5-1.9L6.4,3.5
	L5.9,5.5C5.6,5.4,5.4,5.3,5.1,5.3L5.1,5.2L3.4,4.8L3.1,6.1c0,0,0.9,0.2,0.9,0.2C4.4,6.5,4.5,6.7,4.5,6.9L3.9,9.2
	c0,0.1,0,0.1,0.1,0.1c0,0-0.1,0-0.1,0l-0.8,3.2c-0.1,0.1-0.2,0.3-0.4,0.3c0,0-0.9-0.2-0.9-0.2l-0.6,1.4l1.6,0.4
	c0.3,0.1,0.6,0.1,0.9,0.2l-0.5,2l1.2,0.3l0.5-2c0.3,0.1,0.6,0.2,0.9,0.2l-0.5,1.9l1.2,0.3l0.5-2C7.8,15,9.4,14.8,10.2,13.3
	c0.6-1.2,0.3-1.9-0.5-2.3C10.4,10.7,11.4,10.1,11.6,9z M8.4,12.3c-0.4,1.7-3.3,0.8-4.3,0.5l0.8-3C5.9,10.1,8.9,10.5,8.4,12.3z
	 M8.8,8.9c-0.4,1.5-2.9,0.8-3.7,0.6l0.7-2.7C6.5,7,9.2,7.3,8.8,8.9z"/>
  <path fill="#0D92B3" d="M27.4,5.5l-0.6,2.7c0,0,0.9-0.3,2-0.3c1.1,0,2.3,0.2,2.3,1.5c0,0.4-0.1,0.9-0.2,1.2
	c-0.3,1.2-0.8,2.9-0.8,3.4c0,0.5,0.3,0.8,1.3,0.8c0.7,0,1.3-0.2,1.3-0.2l-0.6,2.7c0,0-0.8,0.3-2.1,0.3c-1.3,0-1.9-0.6-1.9-1.5
	c0-0.6,0.3-1.6,0.6-2.8c0.3-1.2,0.4-1.5,0.5-2c0.1-0.4-0.1-0.6-0.5-0.6c-0.4,0-1.6,0.2-1.6,0.2l-0.9,3.8c-0.6,2.7-0.9,3.4-2.3,4
	c-0.8,0.3-1.9,0.3-2.7,0.2l0.6-2.9c0,0,1,0.2,1.5,0c0.4-0.2,0.5-0.6,0.7-1.5l1.9-8.7L27.4,5.5z"/>
  <path fill="#627EEA" d="M40.7,8.3l0.7-1.1l-1.3-0.3l-0.6,1l-1.2-0.3l0.6-1l-1.3-0.3l-0.7,1.1l-1-0.2l0,1.4l0.7,0.2
	c0.4,0.1,0.5,0.3,0.4,0.6L35.6,14l1.7,0.4l1-4.3c0.1-0.3,0.2-0.4,0.5-0.3l0.6,0.1l0.4-1.6L40.7,8.3z"/>
  <path fill="#F7931A" d="M20.8,7.2l-1.1-0.8l-0.5,1.2l-0.3,0.7l-0.3-0.8l-0.5-1.2l-1.4,0.5l-2,4.8l1.4,0.6l1.1-2.6l0.4,2.8l1.5,0.6
	l0.5-2.9l1.1,2.6l1.4-0.6L20.8,7.2z"/>
  <path fill="#0D92B3" d="M48.1,11.9c0.7-3-1.1-4.8-3.6-5.9l-0.7,2.9c0,0,1.3,0.4,1.6,1.5c0.2,1.1-0.6,1.7-0.6,1.7l-0.7,3l1.7,0.4
	L47,12c0,0,0.2,0.1,0.6,0C48,11.9,48.1,11.9,48.1,11.9z M46.2,8.9c-0.3-0.2-0.9-0.5-0.9-0.5l-0.5,2c0,0,0.6,0.2,0.9,0.5
	c0.3,0.2,0.3,0.7,0.1,1.1c-0.2,0.4-0.6,0.8-1.2,0.6c-0.6-0.1-0.9-0.8-0.9-0.8l-0.5,2c0,0,0.3,0.6,1.5,0.9c1.1,0.3,2.3-0.3,2.8-1.6
	C47.8,11,47.6,9.7,46.2,8.9z"/>
</svg>