<?xml version="1.0" encoding="UTF-8"?>
<svg xmlns="http://www.w3.org/2000/svg" width="100" height="60" viewBox="0 0 100 60">
  <rect width="100" height="60" rx="5" ry="5" fill="#ffffff" stroke="#dddddd" stroke-width="1"/>
  <g transform="translate(30, 15)">
    <circle cx="15" cy="15" r="15" fill="#F7931A"/>
    <path d="M23.189,13.02c0.329-2.2-1.35-3.382-3.642-4.17l0.745-2.985l-1.815-0.453l-0.724,2.904 c-0.477-0.119-0.967-0.231-1.454-0.342l0.73-2.927l-1.813-0.452l-0.745,2.985c-0.395-0.09-0.782-0.179-1.158-0.272l0.002-0.008 l-2.502-0.625l-0.483,1.939c0,0,1.35,0.309,1.32,0.328c0.736,0.184,0.87,0.672,0.848,1.058l-0.849,3.406 c0.051,0.013,0.117,0.032,0.19,0.061l-0.192-0.048l-1.188,4.77c-0.09,0.224-0.32,0.56-0.836,0.432 c0.018,0.027-1.321-0.33-1.321-0.33l-0.901,2.077l2.358,0.589c0.439,0.11,0.87,0.225,1.293,0.334l-0.752,3.018l1.813,0.452 l0.745-2.985c0.494,0.134,0.973,0.257,1.445,0.374l-0.742,2.973l1.815,0.453l0.752-3.014c3.089,0.584,5.408,0.349,6.387-2.443 c0.788-2.244-0.039-3.537-1.663-4.381C21.838,15.245,22.954,14.659,23.189,13.02z M19.396,18.459 c-0.56,2.244-4.348,1.031-5.574,0.726l0.995-3.985C16.043,15.505,19.977,16.12,19.396,18.459z M19.956,12.981 c-0.511,2.047-3.666,1.008-4.687,0.752l0.902-3.616C17.191,10.373,20.485,10.848,19.956,12.981z" fill="#FFFFFF"/>
  </g>
</svg>