<?xml version="1.0" encoding="UTF-8"?>
<svg xmlns="http://www.w3.org/2000/svg" width="100" height="60" viewBox="0 0 100 60">
  <rect width="100" height="60" rx="5" ry="5" fill="#ffffff" stroke="#dddddd" stroke-width="1"/>
  <g transform="translate(20, 17)">
    <circle cx="23" cy="13" r="13" fill="#EB001B"/>
    <circle cx="37" cy="13" r="13" fill="#F79E1B"/>
    <path d="M30,3.154c-3.896,3.15-6.4,7.981-6.4,13.384s2.504,10.235,6.4,13.384c3.896-3.15,6.4-7.981,6.4-13.384 S33.896,6.304,30,3.154z" fill="#FF5F00"/>
    <path d="M10.105,21.272v-0.637h0.246v-0.132h-0.628v0.132h0.246v0.637H10.105z M11.329,21.272v-0.77h-0.191l-0.221,0.506 l-0.221-0.506h-0.191v0.77h0.137v-0.581l0.206,0.476h0.139l0.206-0.476v0.581H11.329z" fill="#F79E1B"/>
    <path d="M51.5,11.741h-3.298v-1.18h3.298V11.741z M44.373,8.199c-0.574-0.352-1.231-0.523-1.982-0.523 c-1.087,0-1.985,0.517-2.313,1.321c-0.346-0.869-1.177-1.321-2.198-1.321c-0.682,0-1.284,0.205-1.735,0.593V8.38h-2.255v8.041 h2.255v-4.413c0-0.88,0.484-1.346,1.229-1.346c0.728,0,1.092,0.479,1.092,1.334v4.424h2.255v-4.413c0-0.88,0.498-1.346,1.229-1.346 c0.742,0,1.106,0.479,1.106,1.334v4.424h2.255v-4.708c0-0.732-0.208-1.334-0.624-1.784 C45.205,8.528,44.947,8.551,44.373,8.199z M27.05,14.156c-0.715,0-1.255-0.566-1.255-1.332s0.54-1.307,1.255-1.307 c0.701,0,1.243,0.541,1.243,1.307S27.751,14.156,27.05,14.156z M29.319,8.38h-2.255v0.593c-0.415-0.441-1.051-0.693-1.845-0.693 c-1.668,0-2.939,1.297-2.939,3.101c0,1.791,1.271,3.089,2.939,3.089c0.794,0,1.429-0.253,1.845-0.693v0.644h2.255V8.38z M18.478,11.367c0-0.541,0.442-0.957,1.079-0.957c0.594,0,1.051,0.251,1.365,0.806l1.311-0.833 c-0.714-1.042-1.668-1.525-2.831-1.525c-1.75,0-3.129,1.144-3.129,2.765c0,2.778,3.403,2.34,3.403,3.546 c0,0.453-0.441,0.755-1.078,0.755c-0.922,0-1.445-0.466-1.746-0.959l-1.363,0.869c0.714,1.105,1.749,1.714,3.163,1.714 c1.803,0,3.184-1.093,3.184-2.727C21.836,12.14,18.478,12.648,18.478,11.367z" fill="#231F20"/>
  </g>
</svg>