<?xml version="1.0" encoding="UTF-8"?>
<svg xmlns="http://www.w3.org/2000/svg" width="100" height="60" viewBox="0 0 100 60">
  <rect width="100" height="60" rx="5" ry="5" fill="#ffffff" stroke="#dddddd" stroke-width="1"/>
  <g transform="translate(15, 18)">
    <path d="M64.936,13.982c-0,2.9-2.354,5.254-5.256,5.254H9.319c-2.902,0-5.256-2.354-5.256-5.254V5.255 C4.063,2.354,6.417,0,9.319,0h50.361c2.902,0,5.256,2.354,5.256,5.255V13.982z" fill="#86b817"/>
    <path d="M47.368,5.731v8.006h3.35V5.731H47.368z M44.112,5.731v8.006h3.082V5.731H44.112z M40.85,10.1 c0.003,1.144-0.646,1.864-1.708,1.864c-1.061,0-1.8-0.699-1.803-1.826c-0.003-1.144,0.693-1.828,1.776-1.828 C40.21,8.31,40.847,8.991,40.85,10.1z M40.85,5.731h-3.068v1.654c-0.625-1.215-1.683-1.853-3.164-1.853 c-1.334,0-2.448,0.486-3.343,1.459c-0.895,0.973-1.347,2.211-1.347,3.711c0,1.41,0.449,2.586,1.349,3.524 c0.9,0.939,2.023,1.408,3.369,1.408c1.471,0,2.522-0.615,3.136-1.851v1.653h3.068V5.731z M29.392,5.731v8.006h3.35V5.731H29.392z M26.137,5.731v8.006h3.081V5.731H26.137z M22.87,10.1c0.006,1.144-0.643,1.864-1.705,1.864c-1.062,0-1.8-0.699-1.803-1.826 c-0.006-1.144,0.693-1.828,1.773-1.828C22.233,8.31,22.867,8.991,22.87,10.1z M22.87,5.731h-3.071v1.654 c-0.624-1.215-1.683-1.853-3.166-1.853c-1.334,0-2.448,0.486-3.342,1.459c-0.895,0.973-1.342,2.211-1.342,3.711 c0,1.41,0.447,2.586,1.344,3.524c0.897,0.939,2.023,1.408,3.368,1.408c1.474,0,2.522-0.615,3.139-1.851v1.653h3.071V5.731z" fill="#ffffff"/>
  </g>
</svg>