<svg xmlns="http://www.w3.org/2000/svg" viewBox="0 0 50 18">
  <path fill="#67BC52" d="M12.28,0.22C10.51,0.22,8.84,0.62,7.58,1.35C6.31,2.09,5.35,3.16,5.35,4.46c0,0.91,0.42,1.7,1.16,2.26
	c0.74,0.56,1.74,0.89,2.85,0.89c1.79,0,3.05-0.96,3.05-2.42c0-0.75-0.35-1.4-0.95-1.84c-0.61-0.44-1.47-0.68-2.42-0.68
	c-0.63,0-1.17,0.12-1.58,0.31c-0.36,0.18-0.57,0.4-0.57,0.61c0,0.12,0.04,0.22,0.15,0.3c0.11,0.08,0.29,0.13,0.5,0.13
	c0.38,0,0.66-0.13,0.93-0.26c0.26-0.13,0.53-0.26,0.92-0.26c0.26,0,0.49,0.06,0.65,0.18c0.16,0.12,0.24,0.29,0.24,0.51
	c0,0.44-0.38,0.79-1.21,0.79c-0.28,0-0.58-0.04-0.89-0.12c-0.31-0.09-0.61-0.22-0.91-0.42c-0.18-0.11-0.32-0.16-0.44-0.16
	c-0.12,0-0.22,0.05-0.28,0.14c-0.14,0.19-0.14,0.58,0.24,0.93c0.54,0.49,1.42,0.79,2.43,0.79c0.69,0,1.31-0.13,1.77-0.38
	c0.46-0.24,0.74-0.6,0.74-1.01c0-0.22-0.12-0.43-0.33-0.6c-0.22-0.17-0.53-0.31-0.9-0.39c-0.2-0.06-0.38-0.09-0.54-0.12
	c-0.16-0.03-0.28-0.05-0.39-0.11c-0.05-0.03-0.07-0.05-0.07-0.07c0,0,0-0.01,0.03-0.03c0.03-0.02,0.07-0.03,0.14-0.03
	c0.1,0,0.23,0.02,0.37,0.05c0.14,0.03,0.3,0.07,0.47,0.12c0.15,0.05,0.29,0.07,0.39,0.07c0.14,0,0.23-0.05,0.31-0.14
	c0.07-0.09,0.13-0.21,0.14-0.35c0.01-0.16-0.05-0.29-0.15-0.39c-0.11-0.1-0.26-0.16-0.44-0.21C11.4,2.6,11.21,2.58,11,2.57
	c-0.21-0.01-0.44-0.02-0.68-0.02c-0.47,0-0.9,0.06-1.21,0.15c-0.31,0.1-0.5,0.24-0.5,0.4c0,0.08,0.04,0.16,0.14,0.22
	c0.1,0.06,0.24,0.11,0.42,0.15c0.28,0.07,0.65,0.11,1.05,0.11c0.03,0,0.06,0,0.1,0c0.07,0,0.12,0.02,0.16,0.04
	c0.03,0.03,0.04,0.06,0.04,0.09c0,0.03-0.02,0.07-0.07,0.1c-0.05,0.03-0.12,0.05-0.22,0.05c-0.21,0-0.44-0.05-0.67-0.11
	c-0.24-0.07-0.48-0.14-0.74-0.14c-0.17,0-0.32,0.03-0.43,0.09C8.29,3.72,8.24,3.79,8.24,3.86c0,0.05,0.03,0.1,0.09,0.14
	c0.06,0.04,0.14,0.08,0.24,0.11c0.16,0.06,0.37,0.1,0.62,0.14c0.25,0.04,0.52,0.05,0.82,0.05c0.96,0,1.72-0.13,2.25-0.37
	c0.53-0.24,0.84-0.58,0.84-0.97c0-0.16-0.06-0.31-0.16-0.44c-0.1-0.13-0.24-0.25-0.4-0.34c-0.37-0.21-0.81-0.33-1.28-0.4
	c-0.47-0.06-0.95-0.09-1.39-0.09c-0.84,0-1.62,0.19-2.14,0.49c-0.26,0.15-0.47,0.33-0.6,0.52c-0.13,0.19-0.2,0.39-0.2,0.6
	c0,0.46,0.28,0.8,0.7,1.04c0.42,0.24,0.98,0.37,1.56,0.37c0.31,0,0.6-0.03,0.87-0.09c0.27-0.06,0.51-0.16,0.72-0.27
	c0.16-0.09,0.3-0.19,0.41-0.29c0.11-0.1,0.19-0.2,0.25-0.3c0.03-0.06,0.05-0.12,0.07-0.18c0.02-0.06,0.04-0.12,0.07-0.18
	c0.03-0.06,0.07-0.1,0.1-0.13c0.04-0.03,0.07-0.05,0.11-0.05c0.04,0,0.08,0.02,0.11,0.07c0.03,0.04,0.05,0.11,0.05,0.18
	c0,0.1-0.04,0.23-0.12,0.37c-0.08,0.14-0.21,0.29-0.39,0.43c-0.34,0.27-0.85,0.5-1.51,0.67c-0.66,0.17-1.47,0.28-2.39,0.28
	c-0.89,0-1.75-0.09-2.48-0.26c-0.73-0.17-1.32-0.41-1.72-0.72c-0.21-0.16-0.37-0.34-0.47-0.53c-0.1-0.19-0.15-0.4-0.15-0.61
	c0-0.25,0.07-0.49,0.22-0.71c0.15-0.22,0.38-0.42,0.7-0.6c0.64-0.35,1.61-0.57,2.85-0.57c0.58,0,1.16,0.05,1.73,0.14
	c0.57,0.09,1.11,0.23,1.61,0.41c0.23,0.09,0.42,0.18,0.57,0.27c0.15,0.09,0.25,0.19,0.25,0.29c0,0.04-0.02,0.07-0.05,0.1
	c-0.04,0.03-0.09,0.04-0.15,0.04c-0.11,0-0.24-0.06-0.41-0.14c-0.17-0.08-0.38-0.16-0.65-0.24c-0.5-0.14-1.09-0.25-1.72-0.31
	c-0.63-0.06-1.3-0.08-1.97-0.08c-1.34,0-2.47,0.3-3.23,0.8C4.66,3.06,4.27,3.62,4.27,4.25c0,0.63,0.39,1.18,1.1,1.62
	c0.71,0.43,1.72,0.75,2.95,0.9c0.63,0.07,1.28,0.11,1.95,0.11c1.28,0,2.59-0.14,3.72-0.4c1.14-0.26,2.1-0.63,2.8-1.08
	c0.35-0.23,0.62-0.48,0.8-0.74c0.18-0.26,0.28-0.54,0.28-0.83c0-0.14-0.02-0.27-0.07-0.4c-0.04-0.12-0.11-0.24-0.21-0.35
	c-0.1-0.11-0.22-0.22-0.38-0.32c-0.15-0.11-0.33-0.2-0.54-0.29c-0.4-0.17-0.88-0.32-1.43-0.45c-0.55-0.12-1.17-0.21-1.84-0.28
	c-0.36-0.03-0.65-0.05-0.9-0.06c-0.25-0.01-0.46-0.01-0.66-0.01c-0.51,0-1,0.03-1.45,0.09c-0.45,0.06-0.86,0.15-1.2,0.26
	c-0.17,0.06-0.32,0.12-0.44,0.2C8.22,2.27,8.13,2.36,8.13,2.46c0,0.1,0.08,0.17,0.23,0.22c0.15,0.05,0.37,0.08,0.62,0.08
	c0.14,0,0.28-0.01,0.42-0.03c0.14-0.02,0.28-0.04,0.4-0.07c0.24-0.05,0.44-0.1,0.6-0.14c0.16-0.04,0.28-0.08,0.36-0.1
	c0.04-0.01,0.08-0.02,0.11-0.03c0.03,0,0.06-0.01,0.08-0.01c0.09,0,0.16,0.02,0.21,0.06c0.05,0.04,0.08,0.1,0.08,0.16
	c0,0.06-0.01,0.12-0.05,0.17c-0.03,0.05-0.07,0.1-0.14,0.14c-0.12,0.08-0.31,0.14-0.54,0.19c-0.23,0.05-0.52,0.08-0.82,0.08
	c-0.78,0-1.41-0.11-1.82-0.32c-0.2-0.1-0.36-0.22-0.45-0.35C7.3,2.36,7.25,2.22,7.25,2.08c0-0.32,0.19-0.6,0.54-0.82
	c0.36-0.22,0.86-0.38,1.43-0.47c0.35-0.05,0.7-0.09,1.05-0.11c0.35-0.02,0.7-0.03,1.04-0.03c0.72,0,1.44,0.04,2.13,0.12
	c0.69,0.08,1.36,0.21,1.96,0.38c0.3,0.09,0.58,0.18,0.82,0.29c0.25,0.11,0.46,0.22,0.64,0.34c0.3,0.21,0.53,0.44,0.68,0.67
	c0.15,0.24,0.22,0.49,0.22,0.74c0,0.44-0.16,0.86-0.46,1.24c-0.3,0.38-0.75,0.71-1.32,0.98c-1.13,0.54-2.76,0.86-4.59,0.86
	c-0.17,0-0.34,0-0.51-0.01c-0.17-0.01-0.34-0.02-0.51-0.03c-0.67-0.06-1.32-0.18-1.92-0.34c-0.61-0.16-1.16-0.38-1.64-0.62
	c-0.4-0.21-0.75-0.43-1.05-0.68c-0.3-0.25-0.54-0.52-0.73-0.81c-0.09-0.15-0.16-0.3-0.2-0.45c-0.05-0.15-0.07-0.3-0.07-0.45
	c0-0.55,0.25-1.04,0.72-1.49c0.47-0.45,1.13-0.85,1.92-1.15c0.79-0.3,1.7-0.53,2.66-0.69c0.96-0.15,1.99-0.23,3.02-0.23
	c1.06,0,2.1,0.08,3.09,0.24c0.99,0.16,1.91,0.39,2.72,0.69c0.41,0.15,0.77,0.31,1.1,0.49c0.32,0.17,0.6,0.36,0.83,0.56
	c0.23,0.2,0.4,0.4,0.53,0.62c0.13,0.22,0.19,0.44,0.19,0.67c0,0.5-0.2,0.96-0.6,1.37c-0.4,0.41-0.95,0.76-1.63,1.05
	c-0.68,0.29-1.48,0.52-2.36,0.67c-0.87,0.16-1.82,0.24-2.78,0.24c-1.02,0-2-0.09-2.92-0.26c-0.92-0.17-1.77-0.42-2.52-0.73
	c-0.38-0.16-0.73-0.33-1.05-0.52c-0.31-0.19-0.59-0.39-0.84-0.61c-0.25-0.22-0.45-0.44-0.6-0.68c-0.15-0.24-0.23-0.48-0.23-0.72
	c0-0.24,0.07-0.47,0.2-0.67c0.13-0.2,0.31-0.38,0.56-0.54c0.24-0.16,0.53-0.29,0.88-0.41c0.34-0.11,0.74-0.2,1.18-0.26
	c0.25-0.03,0.52-0.05,0.81-0.07c0.29-0.02,0.59-0.03,0.92-0.03c0.78,0,1.53,0.06,2.23,0.18c0.7,0.12,1.35,0.31,1.91,0.53
	c0.28,0.11,0.54,0.23,0.76,0.35c0.22,0.12,0.41,0.25,0.55,0.37c0.14,0.12,0.25,0.24,0.32,0.36c0.07,0.12,0.11,0.22,0.11,0.32
	c0,0.1-0.04,0.19-0.12,0.26c-0.08,0.07-0.19,0.1-0.33,0.1c-0.25,0-0.57-0.17-0.97-0.38c-0.39-0.21-0.88-0.42-1.45-0.6
	c-0.57-0.18-1.22-0.33-1.96-0.43c-0.74-0.1-1.57-0.16-2.49-0.16c-0.94,0-1.78,0.06-2.5,0.17c-0.72,0.11-1.33,0.27-1.8,0.45
	c-0.24,0.09-0.43,0.19-0.56,0.28c-0.13,0.09-0.2,0.18-0.2,0.26c0,0.08,0.07,0.17,0.21,0.26c0.14,0.09,0.32,0.18,0.56,0.27
	c0.47,0.18,1.09,0.33,1.8,0.44c0.72,0.11,1.56,0.17,2.5,0.17c0.92,0,1.75-0.05,2.48-0.16c0.73-0.1,1.38-0.24,1.95-0.41
	c0.57-0.17,1.05-0.38,1.45-0.59c0.39-0.21,0.72-0.39,0.97-0.39c0.14,0,0.25,0.03,0.33,0.1c0.08,0.07,0.12,0.16,0.12,0.26
	c0,0.1-0.04,0.2-0.11,0.32c-0.07,0.12-0.18,0.25-0.32,0.36c-0.14,0.12-0.33,0.25-0.55,0.37c-0.22,0.12-0.48,0.24-0.76,0.35
	c-0.57,0.21-1.21,0.4-1.92,0.52c-0.7,0.12-1.45,0.18-2.23,0.18c-0.33,0-0.64-0.01-0.92-0.03c-0.29-0.02-0.56-0.04-0.81-0.07
	c-0.44-0.05-0.84-0.14-1.18-0.26c-0.34-0.11-0.64-0.25-0.88-0.41c-0.25-0.16-0.43-0.34-0.56-0.54c-0.13-0.2-0.2-0.43-0.2-0.67
	c0-0.24,0.08-0.48,0.23-0.72c0.15-0.24,0.35-0.46,0.6-0.68c0.25-0.22,0.54-0.42,0.84-0.61c0.31-0.19,0.67-0.37,1.05-0.52
	c0.75-0.31,1.59-0.56,2.52-0.73c0.92-0.17,1.9-0.26,2.92-0.26c0.97,0,1.91,0.08,2.79,0.24c0.88,0.16,1.68,0.38,2.36,0.67
	c0.68,0.28,1.23,0.64,1.63,1.05c0.4,0.41,0.6,0.87,0.6,1.37c0,0.23-0.06,0.46-0.19,0.67c-0.13,0.22-0.31,0.42-0.53,0.62
	c-0.23,0.2-0.5,0.39-0.83,0.56c-0.32,0.17-0.69,0.34-1.1,0.49c-0.81,0.3-1.73,0.53-2.72,0.69c-0.99,0.16-2.03,0.24-3.09,0.24
	c-1.04,0-2.06-0.08-3.02-0.23c-0.96-0.15-1.87-0.38-2.66-0.69c-0.79-0.3-1.45-0.69-1.92-1.15c-0.47-0.45-0.72-0.95-0.72-1.49
	c0-0.15,0.02-0.3,0.07-0.45c0.04-0.15,0.11-0.3,0.2-0.45c0.19-0.29,0.43-0.56,0.73-0.81c0.3-0.25,0.65-0.48,1.05-0.68
	c0.48-0.25,1.03-0.46,1.64-0.62c0.61-0.16,1.26-0.28,1.92-0.34c0.17-0.01,0.34-0.02,0.51-0.03c0.17-0.01,0.34-0.01,0.51-0.01
	c1.83,0,3.46,0.32,4.59,0.86c0.57,0.27,1.01,0.6,1.32,0.98c0.3,0.38,0.46,0.8,0.46,1.24c0,0.26-0.08,0.5-0.22,0.74
	c-0.15,0.24-0.38,0.46-0.68,0.67c-0.18,0.12-0.39,0.24-0.64,0.34c-0.25,0.11-0.52,0.21-0.82,0.29C15.85,6.97,15.18,7.1,14.49,7.18
	C13.8,7.26,13.08,7.3,12.36,7.3c-0.34,0-0.69-0.01-1.04-0.03c-0.35-0.02-0.7-0.05-1.05-0.11c-0.58-0.09-1.08-0.25-1.43-0.47
	C8.47,6.47,8.28,6.19,8.28,5.87c0-0.14,0.05-0.28,0.13-0.4c0.09-0.13,0.25-0.25,0.45-0.35c0.41-0.21,1.04-0.32,1.82-0.32
	c0.3,0,0.59,0.03,0.82,0.08c0.23,0.05,0.42,0.12,0.54,0.19c0.06,0.04,0.11,0.09,0.14,0.14c0.03,0.05,0.05,0.11,0.05,0.17
	c0,0.06-0.03,0.12-0.08,0.16c-0.05,0.04-0.12,0.06-0.21,0.06c-0.03,0-0.05,0-0.08-0.01c-0.03,0-0.07-0.01-0.11-0.03
	c-0.08-0.03-0.2-0.06-0.36-0.1c-0.16-0.04-0.36-0.09-0.6-0.14c-0.12-0.02-0.26-0.05-0.4-0.07c-0.14-0.02-0.28-0.03-0.42-0.03
	c-0.26,0-0.48,0.03-0.62,0.08C9.2,4.86,9.13,4.93,9.13,5.03c0,0.1,0.09,0.19,0.24,0.28c0.11,0.07,0.26,0.14,0.44,0.2
	c0.35,0.12,0.75,0.2,1.2,0.26c0.45,0.06,0.94,0.09,1.45,0.09c0.2,0,0.41,0,0.66-0.01c0.25-0.01,0.54-0.03,0.9-0.06
	c0.67-0.06,1.29-0.16,1.84-0.28c0.55-0.12,1.03-0.27,1.43-0.45c0.21-0.09,0.39-0.18,0.54-0.29c0.15-0.1,0.28-0.21,0.38-0.32
	c0.1-0.11,0.17-0.22,0.21-0.35c0.04-0.12,0.07-0.26,0.07-0.4c0-0.29-0.1-0.57-0.28-0.83c-0.18-0.26-0.46-0.52-0.8-0.74
	c-0.69-0.45-1.66-0.82-2.8-1.08c-1.14-0.26-2.44-0.4-3.72-0.4c-0.67,0-1.32,0.04-1.95,0.11c-1.22,0.16-2.24,0.47-2.95,0.9
	c-0.71,0.43-1.1,0.99-1.1,1.62c0,0.63,0.39,1.19,1.16,1.64c0.77,0.46,1.89,0.76,3.23,0.8c0.67,0,1.34-0.02,1.97-0.08
	c0.63-0.06,1.22-0.16,1.72-0.31c0.27-0.08,0.48-0.16,0.65-0.24c0.17-0.08,0.3-0.14,0.41-0.14c0.06,0,0.11,0.01,0.15,0.04
	c0.04,0.03,0.05,0.06,0.05,0.1c0,0.11-0.1,0.21-0.25,0.29c-0.15,0.09-0.35,0.18-0.57,0.27c-0.5,0.18-1.04,0.32-1.61,0.41
	c-0.57,0.09-1.16,0.14-1.73,0.14c-1.24,0-2.2-0.22-2.85-0.57c-0.32-0.18-0.55-0.38-0.7-0.6c-0.15-0.22-0.22-0.46-0.22-0.71
	c0-0.21,0.05-0.42,0.15-0.61c0.1-0.19,0.26-0.37,0.47-0.53c0.41-0.31,1-0.55,1.72-0.72c0.73-0.17,1.59-0.26,2.48-0.26
	c0.92,0,1.73,0.11,2.39,0.28c0.66,0.17,1.17,0.4,1.51,0.67c0.17,0.14,0.31,0.29,0.39,0.44c0.08,0.15,0.12,0.28,0.12,0.38
	c0,0.07-0.02,0.13-0.05,0.18c-0.03,0.04-0.07,0.07-0.11,0.07c-0.04,0-0.07-0.02-0.11-0.05c-0.04-0.03-0.07-0.08-0.1-0.13
	c-0.03-0.06-0.05-0.12-0.07-0.18c-0.02-0.06-0.04-0.12-0.07-0.18c-0.05-0.1-0.14-0.2-0.25-0.3c-0.11-0.1-0.25-0.2-0.41-0.29
	c-0.22-0.12-0.46-0.21-0.72-0.27c-0.27-0.06-0.56-0.09-0.87-0.09c-0.58,0-1.14,0.13-1.56,0.37c-0.42,0.24-0.7,0.58-0.7,1.04
	c0,0.21,0.07,0.41,0.2,0.6c0.13,0.19,0.34,0.37,0.6,0.52c0.52,0.3,1.3,0.49,2.14,0.49c0.44,0,0.92-0.03,1.39-0.09
	c0.47-0.06,0.91-0.18,1.28-0.4c0.16-0.09,0.3-0.21,0.4-0.34c0.1-0.13,0.16-0.28,0.16-0.44c0-0.39-0.3-0.73-0.84-0.97
	c-0.53-0.24-1.29-0.37-2.25-0.37c-0.3,0-0.57,0.01-0.82,0.05c-0.25,0.04-0.46,0.08-0.62,0.14c-0.1,0.03-0.18,0.07-0.24,0.11
	c-0.06,0.04-0.09,0.09-0.09,0.14c0,0.07,0.06,0.14,0.16,0.18c0.11,0.05,0.27,0.08,0.43,0.08c0.25,0,0.5-0.07,0.74-0.14
	c0.24-0.07,0.47-0.12,0.67-0.12c0.09,0,0.17,0.02,0.22,0.05c0.05,0.03,0.07,0.07,0.07,0.1c0,0.03-0.01,0.06-0.04,0.09
	c-0.03,0.03-0.08,0.04-0.16,0.04c-0.03,0-0.06,0-0.1,0c-0.39,0-0.77-0.04-1.05-0.11C9.4,3.97,9.26,3.92,9.16,3.86
	c-0.1-0.06-0.14-0.14-0.14-0.22c0-0.15,0.19-0.29,0.5-0.39c0.31-0.1,0.73-0.15,1.21-0.15c0.24,0,0.47,0.01,0.68,0.02
	c0.21,0.01,0.4,0.03,0.57,0.05c0.18,0.02,0.34,0.05,0.47,0.08c0.14,0.03,0.24,0.06,0.32,0.1c0.18,0.08,0.29,0.21,0.28,0.35
	c-0.01,0.14-0.07,0.26-0.14,0.35c-0.07,0.09-0.17,0.14-0.31,0.14c-0.1,0-0.24-0.02-0.39-0.07c-0.17-0.05-0.33-0.09-0.47-0.12
	c-0.14-0.03-0.27-0.05-0.37-0.05c-0.07,0-0.12,0.01-0.14,0.03c-0.03,0.02-0.03,0.03-0.03,0.03c0,0.02,0.02,0.04,0.07,0.07
	c0.11,0.05,0.24,0.08,0.39,0.11c0.16,0.03,0.34,0.06,0.54,0.12c0.37,0.08,0.68,0.22,0.9,0.39c0.22,0.17,0.33,0.38,0.33,0.6
	c0,0.41-0.28,0.77-0.74,1.01c-0.46,0.24-1.08,0.38-1.77,0.38c-1.01,0-1.89-0.3-2.43-0.79c-0.38-0.34-0.37-0.74-0.24-0.93
	c0.07-0.09,0.17-0.14,0.28-0.14c0.11,0,0.26,0.06,0.44,0.16c0.3,0.2,0.6,0.33,0.91,0.42c0.3,0.09,0.61,0.12,0.89,0.12
	c0.83,0,1.21-0.35,1.21-0.79c0-0.22-0.09-0.39-0.24-0.51c-0.16-0.12-0.39-0.18-0.65-0.18c-0.39,0-0.66,0.13-0.92,0.26
	c-0.26,0.13-0.54,0.26-0.93,0.26c-0.22,0-0.39-0.04-0.5-0.13c-0.11-0.09-0.15-0.18-0.15-0.3c0-0.21,0.21-0.43,0.57-0.61
	c0.4-0.2,0.94-0.31,1.58-0.31c0.94,0,1.8,0.24,2.42,0.68c0.61,0.44,0.95,1.09,0.95,1.84c0,1.46-1.26,2.42-3.05,2.42
	c-1.11,0-2.11-0.32-2.85-0.89C5.77,6.15,5.35,5.36,5.35,4.46c0-1.29,0.96-2.37,2.22-3.1C8.84,0.62,10.51,0.22,12.28,0.22z"/>
  <path fill="#67BC52" d="M23.73,3.61H21.1c-0.11,0-0.22,0.09-0.24,0.2l-0.39,2.45c-0.02,0.11,0.05,0.2,0.16,0.2h0.88
	c0.11,0,0.22-0.09,0.24-0.2l0.09-0.56h0.8c0.04,0,0.09,0.09,0.09,0.2l0.11,0.36c0.02,0.07,0.11,0.14,0.18,0.2h1.12
	c0.07,0,0.11-0.02,0.11-0.07c0-0.04,0-0.07-0.02-0.11l-0.39-0.73c0.44-0.18,0.71-0.52,0.78-1.01c0.11-0.68-0.48-0.94-1.12-0.94
	H23.73z M23.6,4.55c-0.04,0.25-0.27,0.47-0.5,0.47h-0.59l0.13-0.9h0.66c0.2,0,0.34,0.14,0.3,0.43H23.6z"/>
  <path fill="#67BC52" d="M27.72,3.61h-1.65c-0.11,0-0.23,0.09-0.27,0.2l-0.71,2.9c-0.04,0.11,0.04,0.2,0.14,0.2h0.87
	c0.11,0,0.23-0.09,0.27-0.2l0.1-0.61h1.09c0.34,0,0.64-0.07,0.85-0.2c0.37-0.25,0.59-0.65,0.69-1.19c0.05-0.29,0.04-0.52-0.05-0.68
	c-0.21-0.41-0.77-0.43-1.34-0.43H27.72z M27.94,4.55c-0.05,0.25-0.27,0.47-0.5,0.47h-0.59l0.14-0.9h0.66c0.2,0,0.34,0.14,0.3,0.43
	H27.94z"/>
  <path fill="#67BC52" d="M30.64,3.61h-0.87c-0.11,0-0.23,0.09-0.27,0.2l-0.73,3.11c-0.05,0.11,0.04,0.2,0.14,0.2h0.87
	c0.11,0,0.23-0.09,0.27-0.2l0.73-3.11C30.82,3.7,30.75,3.61,30.64,3.61z"/>
  <path fill="#67BC52" d="M34.32,3.61c-0.11,0-0.07,0.07-0.14,0.14l-1.43,1.73l-0.46-1.66c-0.02-0.11-0.14-0.2-0.25-0.2h-0.75
	c-0.11,0-0.16,0.09-0.11,0.2l0.89,2.9c0.05,0.11,0.05,0.29,0,0.4L32,6.3c-0.05,0.09,0,0.16,0.11,0.16h0.85
	c0.11,0,0.25-0.05,0.32-0.14l2.19-2.53c0.07-0.09,0.04-0.18-0.07-0.18H34.32z"/>
  <path fill="#67BC52" d="M44.28,4.2h0.36c0.11,0,0.16-0.09,0.13-0.2l-0.11-0.43c-0.04-0.11-0.16-0.2-0.27-0.2h-2.97
	c-0.11,0-0.16,0.09-0.13,0.2l0.13,0.43c0.04,0.11,0.16,0.2,0.27,0.2h0.34l-0.14,2.06c-0.02,0.11,0.07,0.2,0.18,0.2h0.87
	c0.11,0,0.2-0.09,0.22-0.2L44.28,4.2z"/>
  <path fill="#67BC52" d="M47.8,3.61h-2.06c-0.11,0-0.23,0.09-0.27,0.2l-0.73,3.11c-0.04,0.11,0.04,0.2,0.14,0.2h0.87
	c0.11,0,0.22-0.09,0.27-0.2l0.23-1.15h0.73c0.34,0,0.64-0.07,0.85-0.2c0.37-0.25,0.59-0.65,0.69-1.19c0.05-0.29,0.04-0.52-0.05-0.68
	c-0.21-0.41-0.77-0.43-1.34-0.43H47.8z M48.02,4.55c-0.05,0.25-0.27,0.47-0.5,0.47h-0.59l0.14-0.9h0.66c0.2,0,0.34,0.14,0.3,0.43
	H48.02z"/>
  <path fill="#67BC52" d="M39.13,3.61c-0.12,0-0.23,0.09-0.27,0.2l-0.14,0.58h1.1l-0.59,2.34c-0.04,0.11,0.05,0.2,0.14,0.2h0.87
	c0.12,0,0.23-0.09,0.27-0.2l0.59-2.34h1.01c0.12,0,0.23-0.09,0.27-0.2l0.16-0.58c0.04-0.11-0.05-0.2-0.14-0.2H39.13z"/>
  <path fill="#67BC52" d="M37.78,4.96l0.18-0.38c0.07-0.11,0.05-0.29-0.02-0.38c-0.12-0.14-0.32-0.27-0.59-0.38
	c-0.21-0.09-0.46-0.14-0.71-0.14c-0.81,0-1.42,0.47-1.56,1.1c-0.09,0.38-0.04,0.72,0.13,0.97c0.16,0.25,0.43,0.43,0.79,0.54
	c0.14,0.04,0.27,0.07,0.36,0.11c0.11,0.04,0.16,0.09,0.14,0.2c-0.04,0.13-0.2,0.23-0.41,0.23c-0.18,0-0.38-0.07-0.48-0.16
	c-0.09-0.07-0.14-0.14-0.14-0.23c0-0.05-0.02-0.09-0.09-0.09h-0.84c-0.07,0-0.11,0.04-0.11,0.09c0,0.34,0.21,0.68,0.57,0.9
	c0.36,0.22,0.84,0.36,1.3,0.36c0.85,0,1.49-0.45,1.64-1.1c0.09-0.42,0.04-0.77-0.14-1.03c-0.18-0.25-0.47-0.42-0.82-0.52
	c-0.14-0.04-0.27-0.07-0.36-0.11c-0.11-0.04-0.14-0.09-0.13-0.16c0.02-0.14,0.18-0.25,0.39-0.25c0.16,0,0.3,0.04,0.39,0.09
	c0.09,0.05,0.14,0.13,0.14,0.18c0,0.02,0.02,0.07,0.09,0.07h0.77C37.64,5.12,37.73,5.08,37.78,4.96z"/>
</svg>