<svg xmlns="http://www.w3.org/2000/svg" viewBox="0 0 50 16">
  <path fill="#253B80" d="M19.6,2.7h-3.8c-0.3,0-0.5,0.2-0.5,0.5l-1.6,10c0,0.2,0.1,0.4,0.3,0.4h1.8c0.3,0,0.5-0.2,0.5-0.5l0.4-2.6  c0-0.3,0.2-0.5,0.5-0.5h1.2c2.4,0,3.8-1.2,4.2-3.4c0.2-1,0-1.8-0.5-2.3C21.5,3.1,20.7,2.7,19.6,2.7z M20.1,6.1  c-0.2,1.3-1.2,1.3-2.2,1.3h-0.6l0.4-2.6c0-0.1,0.1-0.2,0.3-0.2h0.3c0.7,0,1.3,0,1.6,0.4C20,5.2,20.2,5.6,20.1,6.1z"/>
  <path fill="#253B80" d="M31.9,6.1h-1.8c-0.1,0-0.3,0.1-0.3,0.2l-0.1,0.4l-0.1-0.2c-0.4-0.6-1.2-0.7-2.1-0.7c-1.9,0-3.6,1.5-3.9,3.5  c-0.2,1,0.1,2,0.7,2.7c0.6,0.6,1.4,0.9,2.3,0.9c1.6,0,2.5-1,2.5-1l-0.1,0.5c0,0.2,0.1,0.4,0.3,0.4h1.6c0.3,0,0.5-0.2,0.5-0.5  l1-6.4C32.2,6.4,32.1,6.1,31.9,6.1z M29.2,9.5c-0.2,1-1,1.7-2,1.7c-0.5,0-0.9-0.2-1.2-0.5c-0.3-0.3-0.4-0.7-0.3-1.2  c0.2-1,1-1.7,2-1.7c0.5,0,0.9,0.2,1.2,0.5C29.2,8.7,29.3,9.1,29.2,9.5z"/>
  <path fill="#253B80" d="M42.4,6.1h-1.8c-0.2,0-0.3,0.1-0.4,0.2l-2.3,3.4l-1-3.3c-0.1-0.2-0.2-0.3-0.5-0.3h-1.8c-0.2,0-0.3,0.2-0.3,0.4  l1.8,5.3l-1.7,2.4c-0.1,0.2,0,0.4,0.2,0.4h1.8c0.2,0,0.3-0.1,0.4-0.2l5.5-8C42.7,6.3,42.6,6.1,42.4,6.1z"/>
  <path fill="#179BD7" d="M46.3,2.7h-3.8c-0.3,0-0.5,0.2-0.5,0.5l-1.6,10c0,0.2,0.1,0.4,0.3,0.4h1.9c0.2,0,0.4-0.2,0.4-0.4l0.4-2.8  c0-0.3,0.2-0.5,0.5-0.5h1.2c2.4,0,3.8-1.2,4.2-3.4c0.2-1,0-1.8-0.5-2.3C48.3,3.1,47.5,2.7,46.3,2.7z M46.9,6.1  c-0.2,1.3-1.2,1.3-2.2,1.3h-0.6l0.4-2.6c0-0.1,0.1-0.2,0.3-0.2h0.3c0.7,0,1.3,0,1.6,0.4C46.8,5.2,47,5.6,46.9,6.1z"/>
  <path fill="#179BD7" d="M58.7,6.1h-1.8c-0.1,0-0.3,0.1-0.3,0.2l-0.1,0.4l-0.1-0.2c-0.4-0.6-1.2-0.7-2.1-0.7c-1.9,0-3.6,1.5-3.9,3.5  c-0.2,1,0.1,2,0.7,2.7c0.6,0.6,1.4,0.9,2.3,0.9c1.6,0,2.5-1,2.5-1l-0.1,0.5c0,0.2,0.1,0.4,0.3,0.4h1.6c0.3,0,0.5-0.2,0.5-0.5  l1-6.4C59,6.4,58.9,6.1,58.7,6.1z M56,9.5c-0.2,1-1,1.7-2,1.7c-0.5,0-0.9-0.2-1.2-0.5c-0.3-0.3-0.4-0.7-0.3-1.2  c0.2-1,1-1.7,2-1.7c0.5,0,0.9,0.2,1.2,0.5C56,8.7,56.1,9.1,56,9.5z"/>
  <path fill="#179BD7" d="M61.2,2.9l-1.6,10.3c0,0.2,0.1,0.4,0.3,0.4h1.6c0.3,0,0.5-0.2,0.5-0.5l1.6-10c0-0.2-0.1-0.4-0.3-0.4h-1.8  C61.3,2.7,61.2,2.8,61.2,2.9z"/>
  <path fill="#253B80" d="M7.9,2.7H4.1c-0.3,0-0.5,0.2-0.5,0.5l-1.6,10c0,0.2,0.1,0.4,0.3,0.4h1.9c0.2,0,0.3-0.1,0.3-0.3l0.5-2.9  c0-0.3,0.2-0.5,0.5-0.5h1.2c2.4,0,3.8-1.2,4.2-3.4c0.2-1,0-1.8-0.5-2.3C9.8,3.1,9,2.7,7.9,2.7z M8.5,6.1C8.3,7.4,7.3,7.4,6.3,7.4  H5.7l0.4-2.6c0-0.1,0.1-0.2,0.3-0.2h0.3c0.7,0,1.3,0,1.6,0.4C8.3,5.2,8.5,5.6,8.5,6.1z"/>
  <path fill="#253B80" d="M15.7,6h-1.8c-0.1,0-0.3,0.1-0.3,0.2l-0.1,0.4l-0.1-0.2c-0.4-0.6-1.2-0.7-2.1-0.7c-1.9,0-3.6,1.5-3.9,3.5  c-0.2,1,0.1,2,0.7,2.7c0.6,0.6,1.4,0.9,2.3,0.9c1.6,0,2.5-1,2.5-1l-0.1,0.5c0,0.2,0.1,0.4,0.3,0.4H14c0.3,0,0.5-0.2,0.5-0.5  l1-6.4C15.6,6.2,15.7,6,15.7,6z M12.5,9.5c-0.2,1-1,1.7-2,1.7c-0.5,0-0.9-0.2-1.2-0.5c-0.3-0.3-0.4-0.7-0.3-1.2  c0.2-1,1-1.7,2-1.7c0.5,0,0.9,0.2,1.2,0.5C12.4,8.7,12.6,9.1,12.5,9.5z"/>
</svg>