<?xml version="1.0" encoding="UTF-8"?>
<svg xmlns="http://www.w3.org/2000/svg" width="100" height="60" viewBox="0 0 100 60">
  <rect width="100" height="60" rx="5" ry="5" fill="#ffffff" stroke="#dddddd" stroke-width="1"/>
  <g transform="translate(22, 15)">
    <path d="M30.854,14.123c0.321-2.053,0-3.457-1.112-4.719c-1.22-1.381-3.432-1.974-6.256-1.974H16.93c-0.463,0-0.854,0.336-0.926,0.794l-2.724,17.263c-0.053,0.34,0.209,0.648,0.553,0.648h4.024l-0.278,1.763c-0.047,0.298,0.182,0.57,0.485,0.57h3.406c0.403,0,0.746-0.293,0.809-0.69l0.033-0.172l0.639-4.055l0.041-0.223c0.063-0.398,0.406-0.691,0.809-0.691h0.51c3.297,0,5.878-1.339,6.63-5.213c0.313-1.626,0.151-2.984-0.677-3.937C30.093,14.328,30.477,14.211,30.854,14.123z" fill="#253B80"/>
    <path d="M29.471,13.704c-0.043-0.028-0.086-0.056-0.133-0.082c-0.137-0.078-0.281-0.149-0.432-0.211 c-0.151-0.062-0.308-0.118-0.471-0.164c-0.043-0.013-0.087-0.026-0.133-0.038c-0.168-0.043-0.342-0.078-0.521-0.106 c-0.084-0.012-0.169-0.024-0.253-0.036c-0.379-0.05-0.776-0.077-1.189-0.077h-6.557c-0.154,0-0.305,0.034-0.442,0.097 c-0.204,0.094-0.365,0.268-0.433,0.483l-1.032,6.542l-0.029,0.185c0.072-0.459,0.463-0.794,0.926-0.794h1.934 c5.609,0,10.023,2.28,11.31,8.873c0.039,0, 20,30.854,13.704z" fill="#253B80"/>
    <path d="M10.486,14.123l1.696-10.754c0.072-0.459,0.463-0.794,0.926-0.794h6.889c2.3,0,4.113,0.17,5.361,0.534 c0.352,0.103,0.677,0.22,0.977,0.351c0.3,0.131,0.573,0.275,0.821,0.435c0.248,0.16,0.467,0.335,0.661,0.524 c0.193,0.189,0.359,0.392,0.501,0.609c0.323-2.062,0.002-3.473-1.114-4.742c-1.22-1.382-3.432-1.975-6.256-1.975h-10.1 c-0.463,0-0.854,0.337-0.926,0.796L5.798,15.371c-0.053,0.34,0.209,0.649,0.553,0.649h3.945 C10.297,16.02,10.392,14.858,10.486,14.123z" fill="#179BD7"/>
    <path d="M30.854,14.123c0.321-2.053,0.001-3.457-1.112-4.719c-1.22-1.381-3.432-1.974-6.256-1.974h-6.556 c-0.463,0-0.854,0.336-0.926,0.794l-1.696,10.754l-0.047,0.301c0.072-0.459,0.463-0.795,0.926-0.795h1.934 c5.609,0,10.023,2.28,11.31,8.873c0.039,0.199,0.071,0.392,0.099,0.582c1.046-0.779,1.712-1.943,1.993-3.586 c0.314-1.627,0.151-2.984-0.676-3.937C30.093,14.328,30.477,14.211,30.854,14.123z" fill="#179BD7"/>
    <path d="M26.293,20.324c-0.753,3.875-3.334,5.214-6.63,5.214h-0.511c-0.403,0-0.746,0.292-0.809,0.69l-0.858,5.448 c-0.045,0.286,0.175,0.545,0.465,0.545h3.258c0.386,0,0.714-0.281,0.774-0.663l0.032-0.165l0.61-3.88l0.039-0.212 c0.06-0.382,0.389-0.663,0.775-0.663h0.489c3.162,0,5.634-1.283,6.358-4.996c0.305-1.561,0.204-2.867-0.594-3.785 C28.522,18.524,27.542,19.247,26.293,20.324z" fill="#222D65"/>
    <path d="M25.607,19.915c-0.098-0.029-0.199-0.056-0.303-0.081c-0.104-0.024-0.211-0.047-0.32-0.067 c-0.378-0.071-0.789-0.107-1.231-0.107h-3.723c-0.09,0-0.177,0.018-0.254,0.05c-0.153,0.066-0.28,0.185-0.335,0.341 l-0.87,5.513l-0.025,0.159c0.063-0.398,0.406-0.691,0.809-0.691h0.511c3.297,0,5.878-1.339,6.63-5.213 c0.021-0.109,0.039-0.216,0.056-0.319C26.294,20.147,25.969,20.045,25.607,19.915z" fill="#222D65"/>
    <path d="M19.371,19.709c0.055-0.156,0.182-0.275,0.335-0.341c0.077-0.033,0.163-0.05,0.254-0.05h3.723 c0.442,0,0.853,0.036,1.231,0.107c0.109,0.021,0.216,0.043,0.32,0.067c0.104,0.025,0.205,0.052,0.303,0.081 c0.362,0.129,0.686,0.231,0.953,0.385c0.352-2.245-0.003-3.772-1.214-5.157c-1.33-1.515-3.742-2.154-6.822-2.154h-6.889 c-0.463,0-0.854,0.337-0.926,0.796l-2.724,17.263c-0.053,0.34,0.209,0.649,0.553,0.649h4.024l1.009-6.396L19.371,19.709z" fill="#253B80"/>
  </g>
</svg>