<?xml version="1.0" encoding="UTF-8"?>
<svg xmlns="http://www.w3.org/2000/svg" width="100" height="60" viewBox="0 0 100 60">
  <rect width="100" height="60" rx="5" ry="5" fill="#ffffff" stroke="#dddddd" stroke-width="1"/>
  <g transform="translate(28, 20)">
    <path d="M40.842,10.158h-3.421v-0.977c0-0.434-0.279-0.668-0.714-0.668h-2.435c-0.434,0-0.673,0.234-0.673,0.668v1.017h-1.716v-1.017 c0-0.434-0.239-0.668-0.673-0.668h-2.475c-0.434,0-0.673,0.234-0.673,0.668v1.017h-3.538L23.368,0H0.5l3.658,20h38.842L40.842,10.158z M11.658,15 c0,0.434-0.239,0.712-0.673,0.712H8.51c-0.434,0-0.673-0.278-0.673-0.712v-5.868c0-0.434,0.239-0.709,0.673-0.709h2.475 c0.434,0,0.673,0.275,0.673,0.709V15z" fill="#7b0041"/>
  </g>
</svg>