<svg xmlns="http://www.w3.org/2000/svg" viewBox="0 0 50 18">
  <path fill="#6B0080" d="M22.87 0H9.35C7.07 0 5.23 1.84 5.23 4.11v9.39c0 2.27 1.84 4.11 4.11 4.11h13.53c2.27 0 4.11-1.84 4.11-4.11V4.11c0-2.27-1.84-4.11-4.11-4.11zM14.16 14.51c-2.85 0-5.16-2.31-5.16-5.16s2.31-5.16 5.16-5.16c1.38 0 2.63.54 3.55 1.42l-1.61 1.84c-.47-.45-1.12-.73-1.83-.73-1.46 0-2.64 1.18-2.64 2.64s1.18 2.64 2.64 2.64c.72 0 1.37-.28 1.85-.75l1.61 1.84c-.92.89-2.18 1.44-3.57 1.44zm4.53-4.53h4.71s.28-2-2.35-2c-2.64 0-2.36 2-2.36 2zm7.34 1.49c-.41 1.77-2.04 2.14-3.94 2.14-2.07 0-4.35-.03-4.35-3.39 0-3.37 3.07-3.37 4.59-3.37 1.53 0 4.59 0 4.59 3.37 0 .32-.02.61-.07.87l-6.64.01c.06.66.73 1.22 1.88 1.22 1.11 0 1.64-.39 1.78-.86h2.15z"/>
  <path fill="#6B0080" d="M34.41 6.85h2.14l-2.78 6.59h-2.36l-2.78-6.59h2.14l1.82 4.32z"/>
  <path fill="#6B0080" d="M43.45 11.4c-.41 1.77-2.04 2.14-3.94 2.14-2.07 0-4.35-.03-4.35-3.39 0-3.37 3.07-3.37 4.59-3.37 1.53 0 4.59 0 4.59 3.37 0 .32-.02.61-.07.87l-6.64.01c.06.66.73 1.22 1.88 1.22 1.11 0 1.64-.39 1.78-.86h2.15zm-2.63-1.42s.28-2-2.35-2c-2.64 0-2.36 2-2.36 2h4.71z"/>
</svg>