<?xml version="1.0" encoding="UTF-8"?>
<svg xmlns="http://www.w3.org/2000/svg" width="100" height="60" viewBox="0 0 100 60">
  <rect width="100" height="60" rx="5" ry="5" fill="#ffffff" stroke="#dddddd" stroke-width="1"/>
  <g transform="translate(20, 20)">
    <path d="M18.278,0.453l-5.788,13.977H8.378L5.541,3.667c-0.169-0.683-0.334-0.914-0.882-1.118 C3.795,2.212,2.08,1.795,0.5,1.555L0.595,0.453h8.366c1.073,0,2.033,0.717,2.275,1.967l2.075,8.761L17,0.453H18.278z" fill="#0066b2"/>
    <path d="M30.743,9.458c0.02-3.873-5.352-4.09-5.314-5.824c0.013-0.528,0.526-1.084,1.632-1.229 c0.549-0.073,2.068-0.132,3.793,0.676l0.675-3.152c-0.923-0.337-2.111-0.659-3.595-0.659c-3.795,0-6.467,2.017-6.491,4.919 c-0.024,2.137,1.910,3.332,3.36,4.041c1.491,0.731,1.991,1.195,1.982,1.851c-0.008,0.998-1.189,1.443-2.289,1.46 c-1.928,0.026-3.048-0.52-3.938-0.935l-0.695,3.248c0.893,0.41,2.552,0.77,4.267,0.789C27.939,14.645,30.725,12.652,30.743,9.458z" fill="#0066b2"/>
    <path d="M42.632,14.43h3.333L43.154,0.453H40.21c-0.904,0-1.66,0.525-1.994,1.332l-7.017,12.645h3.788l0.974-2.7h5.996 L42.632,14.43z M36.883,8.724l2.483-6.852l1.418,6.852H36.883z" fill="#0066b2"/>
    <path d="M58.5,3.418L55.763,14.43h-3.595l2.74-11.012h-3.971l0.657-2.964H58.5V3.418z" fill="#0066b2"/>
  </g>
</svg>