<svg xmlns="http://www.w3.org/2000/svg" viewBox="0 0 50 16">
  <path fill="#1A1F71" d="M19.13,0.36h-5.43c-0.29,0-0.59,0.21-0.71,0.47l-3.43,11.12c-0.13,0.26,0.07,0.47,0.36,0.47h2.59c0.29,0,0.59-0.21,0.65-0.47l0.42-1.35h2.95c0.07,0.42,0.36,1.35,0.36,1.35c0.07,0.26,0.36,0.47,0.71,0.47h2.30c0.29,0,0.42-0.21,0.36-0.47L16.83,0.83C16.77,0.57,16.54,0.36,16.19,0.36H19.13z M15.05,7.29l0.71-2.14c0.07-0.21,0.13-0.42,0.13-0.63v0h0.07c0,0.21,0.07,0.42,0.13,0.63l0.78,2.14H15.05z"/>
  <path fill="#1A1F71" d="M8.74,0.31L3.51,12.16c-0.07,0.26,0.07,0.47,0.36,0.47h2.53c0.29,0,0.59-0.21,0.65-0.47l0.84-2.87h3.31c0.29,0,0.59-0.21,0.65-0.47l0.42-1.51c0.07-0.26-0.07-0.47-0.36-0.47H9.25l1.78-5.94c0.07-0.26-0.07-0.47-0.36-0.47L8.74,0.31"/>
  <path fill="#1A1F71" d="M47.55,0.36h-2.53c-0.29,0-0.59,0.21-0.65,0.47l-3.37,11.12c-0.07,0.26,0.07,0.47,0.36,0.47h2.53c0.29,0,0.59-0.21,0.65-0.47l3.37-11.12C47.98,0.57,47.84,0.36,47.55,0.36"/>
  <path fill="#1A1F71" d="M43.78,0.36h-6.25c-0.29,0-0.59,0.21-0.65,0.47l-0.42,1.46c-0.07,0.26,0.07,0.47,0.36,0.47h3.01l-2.43,8.04c-0.07,0.26,0.07,0.47,0.36,0.47h2.43c0.29,0,0.59-0.21,0.65-0.47l2.95-9.87C43.85,0.57,43.78,0.36,43.78,0.36"/>
  <path fill="#1A1F71" d="M32.89,9.85c-0.78,0-1.37-0.47-0.91-0.99c0.33-0.36,0.91-0.68,1.82-0.68c0.39,0,0.91,0.05,1.37,0.16l0.29,0l0-0.1C34.92,8.39,33.99,9.85,32.89,9.85 M36.39,5.31c-0.72-0.36-1.76-0.52-2.79-0.52c-1.69,0-2.95,0.42-3.99,1.04c-0.98,0.57-1.69,1.46-1.95,2.45c-0.26,0.83-0.2,1.51,0.2,2.03c0.39,0.52,1.04,0.83,1.89,0.94c0.07,0,0.13,0,0.2,0c0.78,0,1.43-0.26,1.95-0.47c0.39-0.16,0.72-0.31,0.98-0.31c0.26,0,0.52,0.16,0.85,0.36c0.39,0.26,0.85,0.52,1.56,0.52c0.59,0,1.17-0.16,1.76-0.47l0.39-0.21l-0.26-0.57l-0.46,0.21c-0.33,0.16-0.65,0.21-0.91,0.21c-0.33,0-0.59-0.1-0.91-0.31c-0.33-0.21-0.65-0.36-1.17-0.36c-0.39,0-0.85,0.16-1.37,0.36c-0.52,0.21-1.04,0.36-1.56,0.36c-0.59,0-0.98-0.16-1.24-0.47c-0.26-0.31-0.29-0.78-0.13-1.3c0.13-0.42,0.33-0.73,0.52-0.99c0,0.1,0,0.16,0,0.26c0,0.57,0.2,1.04,0.65,1.35c0.39,0.31,0.98,0.47,1.63,0.47c0.65,0,1.3-0.16,1.76-0.42c0.46-0.26,0.78-0.57,0.91-0.94c0.07-0.26,0.07-0.47,0-0.68c-0.07-0.16-0.26-0.31-0.46-0.36c-0.46-0.16-1.11-0.21-1.76-0.21c-0.91,0-1.24-0.16-1.3-0.31c-0.07-0.16,0.07-0.36,0.13-0.42c0.26-0.26,0.72-0.36,1.3-0.36c0.65,0,1.43,0.16,1.76,0.42l0.42,0.31l0.2-0.63l-0.33-0.21"/>
  <path fill="#1A1F71" d="M24.37,0.99c-0.85-0.57-2.01-0.83-3.7-0.83c-0.91,0-1.89,0.1-2.59,0.16h-0.07c-0.26,0-0.52,0.26-0.59,0.47l-0.26,0.99l0.52,0.1c0.78-0.1,1.89-0.26,3.05-0.26c0.91,0,1.56,0.1,1.95,0.31c0.39,0.21,0.52,0.57,0.39,1.09c-0.07,0.26-0.13,0.42-0.13,0.42c0,0-0.13,0-0.2,0c-1.3,0-2.66,0.16-3.76,0.47c-1.17,0.31-2.14,0.83-2.79,1.56c-0.72,0.78-1.04,1.77-0.85,2.82c0.13,0.68,0.52,1.25,1.11,1.67c0.59,0.36,1.3,0.57,2.14,0.57c0.59,0,1.11-0.05,1.56-0.21c0.52-0.16,0.98-0.36,1.37-0.63c0.33-0.21,0.65-0.47,0.98-0.73l-0.13,0.47c-0.07,0.26,0.07,0.47,0.36,0.47h2.3c0.29,0,0.59-0.21,0.65-0.47l1.43-4.75c0.2-0.73,0.26-1.4,0.13-1.93C27.03,2.24,26.06,1.51,24.37,0.99 M23.96,6.15c-0.2,0.89-0.59,1.61-1.17,2.08c-0.59,0.47-1.3,0.73-2.14,0.73c-0.52,0-0.91-0.1-1.17-0.36c-0.26-0.26-0.39-0.52-0.39-0.94c0-0.57,0.26-1.09,0.78-1.4c0.52-0.36,1.24-0.57,2.14-0.73c0.33-0.05,0.72-0.1,1.04-0.16c0.33,0,0.65-0.05,0.91-0.05c0.26,0,0.46,0,0.59,0c0.13,0,0.26,0,0.26,0C24.05,5.68,24.02,5.9,23.96,6.15"/>
</svg>