<svg width="200" height="200" viewBox="0 0 200 200" fill="none" xmlns="http://www.w3.org/2000/svg">
  <rect width="200" height="200" rx="16" fill="#004D40"/>
  <path d="M30.0312 59.0625H45.5938C48.8125 59.0625 51.4375 59.6562 53.4688 60.8438C55.5312 62 57 63.6562 57.875 65.8125C58.75 67.9375 59.1875 70.4062 59.1875 73.2188C59.1875 76.0312 58.75 78.5 57.875 80.625C57 82.75 55.5312 84.4062 53.4688 85.5938C51.4375 86.7812 48.8125 87.375 45.5938 87.375H40.5625V105H30.0312V59.0625ZM44.5625 78.125C46.4688 78.125 47.8281 77.6875 48.6406 76.8125C49.4531 75.9375 49.8594 74.5625 49.8594 72.6875C49.8594 70.8125 49.4531 69.4375 48.6406 68.5625C47.8281 67.6875 46.4688 67.25 44.5625 67.25H40.5625V78.125H44.5625Z" fill="#B2DFDB"/>
  <path d="M65.9688 59.0625H76.5V82.375L91.7188 59.0625H103.281V105H92.75V81.6875L77.5312 105H65.9688V59.0625Z" fill="#B2DFDB"/>
  <path d="M117.469 59.0625H144.969V67.875H127.969V76.125H142.938V84.6875H127.969V96.1875H145.844V105H117.469V59.0625Z" fill="#B2DFDB"/>
  <path d="M155.312 59.0625H165.844V105H155.312V59.0625Z" fill="#B2DFDB"/>
  <path d="M26.25 114.5H47.7188L46.8438 123.25H34.5312V129.969H45.6875V138.469H34.5312V146.312H47.25L48.0938 155H26.25V114.5Z" fill="#F7CA18"/>
  <path d="M50.5312 114.5H61.0625V146.312H73.5312L72.6875 155H50.5312V114.5Z" fill="#F7CA18"/>
  <path d="M77.0312 114.5H87.5625V155H77.0312V114.5Z" fill="#F7CA18"/>
  <path d="M91.5 114.5H108.75C112.188 114.5 115.094 115.156 117.469 116.469C119.875 117.781 121.688 119.641 122.906 122.047C124.125 124.453 124.734 127.297 124.734 130.578C124.734 133.891 124.125 136.75 122.906 139.156C121.688 141.531 119.875 143.359 117.469 144.641C115.094 145.922 112.188 146.562 108.75 146.562H102.031V155H91.5V114.5ZM108.281 138.062C110.219 138.062 111.672 137.547 112.641 136.516C113.641 135.484 114.141 133.953 114.141 131.922C114.141 129.891 113.641 128.359 112.641 127.328C111.672 126.297 110.219 125.781 108.281 125.781H102.031V138.062H108.281Z" fill="#F7CA18"/>
  <path d="M127.5 114.5H138.031V146.5H150.5L149.656 155H127.5V114.5Z" fill="#F7CA18"/>
  <path d="M154 114.5H175.469L174.594 123.25H162.281V129.969H173.438V138.469H162.281V146.312H175L176.656 155H154V114.5Z" fill="#F7CA18"/>
</svg>