<svg width="200" height="200" viewBox="0 0 200 200" fill="none" xmlns="http://www.w3.org/2000/svg">
  <rect width="200" height="200" rx="16" fill="#1A237E"/>
  <path d="M30 61.8749H49.375C53.0781 61.8749 56.0938 62.5624 58.4219 63.9374C60.75 65.3124 62.3906 67.2499 63.3438 69.7499C64.2969 72.1872 64.7734 75.0312 64.7734 78.2812C64.7734 81.5312 64.2969 84.4062 63.3438 86.9062C62.3906 89.3437 60.75 91.2812 58.4219 92.7187C56.0938 94.0937 53.0781 94.7812 49.375 94.7812H41.5469V120H30V61.8749ZM48.75 84.2187C51.5625 84.2187 53.5938 83.6249 54.8438 82.4374C56.0938 81.2499 56.7188 79.1874 56.7188 76.2499C56.7188 73.3124 56.0938 71.2499 54.8438 70.0624C53.5938 68.8749 51.5625 68.2812 48.75 68.2812H41.5469V84.2187H48.75Z" fill="#64B5F6"/>
  <path d="M67.5781 61.8749H86.1094C90.9219 61.8749 94.9062 62.7968 98.0625 64.6406C101.219 66.4218 103.594 69.0624 105.188 72.5624C106.781 76.0624 107.578 80.2499 107.578 85.1249C107.578 90.0312 106.781 94.2343 105.188 97.7343C103.594 101.172 101.219 103.797 98.0625 105.609C94.9062 107.422 90.9219 108.328 86.1094 108.328H67.5781V61.8749ZM85.7812 98.9999C89.4219 98.9999 92.25 98.3589 94.2656 97.0781C96.3438 95.7968 97.7969 93.9531 98.625 91.5468C99.4531 89.0781 99.8672 86.1874 99.8672 82.8749C99.8672 79.5624 99.4531 76.6874 98.625 74.2499C97.7969 71.8124 96.3438 69.9687 94.2656 68.7187C92.25 67.4062 89.4219 66.7499 85.7812 66.7499H79.125V98.9999H85.7812Z" fill="#64B5F6"/>
  <path d="M122.656 61.8749V91.8749C122.656 93.8124 123.062 95.2812 123.875 96.2812C124.688 97.2812 126.031 97.7812 127.906 97.7812C129.781 97.7812 131.109 97.2812 131.891 96.2812C132.734 95.2812 133.156 93.8124 133.156 91.8749V61.8749H144.609V91.4062C144.609 95.1562 143.891 98.2031 142.453 100.547C141.016 102.891 139.078 104.594 136.641 105.656C134.203 106.719 131.5 107.25 128.531 107.25C125.531 107.25 122.812 106.734 120.375 105.703C117.938 104.672 116 103 114.547 100.687C113.094 98.3281 112.375 95.3906 112.375 91.8749V61.8749H122.656Z" fill="#64B5F6"/>
  <path d="M151.797 61.8749H162.078V108.328H151.797V61.8749Z" fill="#64B5F6"/>
  <path d="M47.7219 127.672H59.1797L69.4922 153.016L79.8672 127.672H91.3672L75.8359 164.125H63.0734L47.7219 127.672Z" fill="#64B5F6"/>
  <path d="M92.875 127.672H123.359V137.078H103.156V141.281H121.781V150.297H103.156V154.766H123.75V164.125H92.875V127.672Z" fill="#64B5F6"/>
  <path d="M127.898 127.672H138.656L156.344 148.531V127.672H167.117V164.125H156.422L138.672 143.266V164.125H127.898V127.672Z" fill="#64B5F6"/>
</svg>