<svg xmlns="http://www.w3.org/2000/svg" viewBox="0 0 60 30" width="60" height="30">
  <rect width="60" height="30" fill="#00247d"/>
  <g fill="#f00">
    <path d="M12 12L8 15h1l-1 1h1l-1 1 5-2-3 4 4-3-1 5 2-5 3 3-1-4 3 1-3-3h5l-4-1 3-1-5-1 3-2h-3l1-3-3 2 1-5-3 4 1-2-2 1 1-1h-1l3-3-5 2 4-4-4 1V6l-3 2 1-3-2 2-1-2z"/>
  </g>
  <g stroke="#fff" stroke-width="2">
    <line x1="0" y1="0" x2="20" y2="10"/>
    <line x1="0" y1="10" x2="20" y2="0"/>
    <path d="M10,0 v10 M0,5 h20" stroke-width="4"/>
    <path d="M10,0 v10 M0,5 h20" stroke-width="2" stroke="#f00"/>
  </g>
  <g fill="#fff">
    <path d="M36 8l-1 3 3-2-1 3 3-1-3 3h3l-3 1 2 2-3-1 1 3-3-2-1 3-1-3-3 2 1-3-3 1 2-2-3-1h3l-3-3 3 1-1-3 3 2 1-3z"/>
    <path d="M50 15l-1 3 3-2-1 3 3-1-3 3h3l-3 1 2 2-3-1 1 3-3-2-1 3-1-3-3 2 1-3-3 1 2-2-3-1h3l-3-3 3 1-1-3 3 2 1-3z"/>
    <path d="M50 7l-.7 2.1 2.1-1.4-.7 2.1 2.1-.7-2.1 2.1h2.1l-2.1.7 1.4 1.4-2.1-.7.7 2.1-2.1-1.4-.7 2.1-.7-2.1-2.1 1.4.7-2.1-2.1.7 1.4-1.4-2.1-.7h2.1l-2.1-2.1 2.1.7-.7-2.1 2.1 1.4.7-2.1z"/>
    <path d="M36 22l-.7 2.1 2.1-1.4-.7 2.1 2.1-.7-2.1 2.1h2.1l-2.1.7 1.4 1.4-2.1-.7.7 2.1-2.1-1.4-.7 2.1-.7-2.1-2.1 1.4.7-2.1-2.1.7 1.4-1.4-2.1-.7h2.1l-2.1-2.1 2.1.7-.7-2.1 2.1 1.4.7-2.1z"/>
  </g>
</svg>