<svg xmlns="http://www.w3.org/2000/svg" viewBox="0 0 300 100" width="300" height="100">
  <path d="M33.3,35.7l6.8,24.9h0.9L47.9,35.7h11.1l7,24.9h0.9l6.8-24.9h11.1l-12.1,43h-10.3l-7.3-26.8h-0.9L47,78.7H36.7l-12.1-43H33.3z" fill="#000000"/>
  <path d="M93.1,35.7h11.1v43H93.1V35.7z" fill="#000000"/>
  <path d="M116.1,35.7h11.1v34h20.2v9H116.1V35.7z" fill="#000000"/>
  <path d="M158.6,35.7h11.1v24l20.4-24h13.2l-20.9,23.6L204.1,78.7h-13.3L175.3,65.1l-5.7,6.5v7.1h-11.1V35.7z" fill="#000000"/>
  <path d="M207.7,35.7h11.1v43h-11.1V35.7z" fill="#000000"/>
  <path d="M233.3,35.7h10.7l20,26v-26h11.1v43h-10.7l-20-26v26h-11.1V35.7z" fill="#000000"/>
  <path d="M234.8,20.6h11.1v7.8h-11.1V20.6z" fill="#000000"/>
</svg>