<svg width="200" height="200" viewBox="0 0 200 200" fill="none" xmlns="http://www.w3.org/2000/svg">
  <rect width="200" height="200" rx="16" fill="#7CB342"/>
  <path d="M50.25 135.125C60.3125 135.125 68.75 126.688 68.75 116.625C68.75 106.562 60.3125 98.125 50.25 98.125C40.1875 98.125 31.75 106.562 31.75 116.625C31.75 126.688 40.1875 135.125 50.25 135.125Z" fill="#C5E1A5"/>
  <path d="M81.375 83C91.4375 83 99.875 74.5625 99.875 64.5C99.875 54.4375 91.4375 46 81.375 46C71.3125 46 62.875 54.4375 62.875 64.5C62.875 74.5625 71.3125 83 81.375 83Z" fill="#C5E1A5"/>
  <path d="M141.125 135.125C151.188 135.125 159.625 126.688 159.625 116.625C159.625 106.562 151.188 98.125 141.125 98.125C131.062 98.125 122.625 106.562 122.625 116.625C122.625 126.688 131.062 135.125 141.125 135.125Z" fill="#C5E1A5"/>
  <path d="M116.375 83C126.438 83 134.875 74.5625 134.875 64.5C134.875 54.4375 126.438 46 116.375 46C106.312 46 97.875 54.4375 97.875 64.5C97.875 74.5625 106.312 83 116.375 83Z" fill="#C5E1A5"/>
  <path d="M20 152.5H32.0781L32.0781 132.875H44.2969C47.4219 132.875 50.1562 132.203 52.5 130.859C54.875 129.516 56.7188 127.609 58.0312 125.141C59.375 122.672 60.0469 119.828 60.0469 116.609C60.0469 113.391 59.375 110.547 58.0312 108.078C56.7188 105.609 54.875 103.703 52.5 102.359C50.1562 101.016 47.4219 100.344 44.2969 100.344H20V152.5ZM43.1094 122.688H32.0781V110.531H43.1094C44.8594 110.531 46.25 111.125 47.2812 112.312C48.3438 113.469 48.875 114.938 48.875 116.719C48.875 118.469 48.3438 119.891 47.2812 121C46.25 122.125 44.8594 122.688 43.1094 122.688Z" fill="#1B5E20"/>
  <path d="M62.2031 152.5H73.7812V132.406H87.2188V152.5H98.7969V100.344H87.2188V122.219H73.7812V100.344H62.2031V152.5Z" fill="#1B5E20"/>
  <path d="M103.672 152.5H115.75V100.344H103.672V152.5Z" fill="#1B5E20"/>
  <path d="M116.953 152.5H138.016C143.453 152.5 147.922 151.219 151.422 148.656C154.953 146.062 156.719 142.344 156.719 137.5C156.719 134.219 155.922 131.5 154.328 129.344C152.766 127.188 150.547 125.812 147.672 125.219C149.891 124.562 151.625 123.266 152.875 121.328C154.156 119.359 154.797 117.047 154.797 114.391C154.797 109.891 153.062 106.5 149.594 104.219C146.156 101.938 141.594 100.766 135.906 100.766H116.953V152.5ZM135.312 121.094H128.531V110.438H135.312C137.375 110.438 138.914 110.891 139.93 111.797C140.945 112.703 141.453 114 141.453 115.688C141.453 117.344 140.945 118.656 139.93 119.625C138.914 120.594 137.375 121.094 135.312 121.094ZM137.141 142.406H128.531V130.812H137.141C139.391 130.812 141.062 131.328 142.156 132.359C143.25 133.391 143.797 134.812 143.797 136.625C143.797 138.406 143.25 139.812 142.156 140.844C141.062 141.875 139.391 142.406 137.141 142.406Z" fill="#1B5E20"/>
  <path d="M160.703 152.5H197.281V142.312H172.688V131.672H195.078V121.766H172.688V110.531H196.891V100.344H160.703V152.5Z" fill="#1B5E20"/>
  <path d="M20 88.5H31.375V71.625H45.7031L54.2344 88.5H67.2656L57.5 69.875C60.5625 68.1562 62.875 65.8594 64.4375 62.9844C66 60.1094 66.7812 56.8594 66.7812 53.2344C66.7812 49.1094 65.8438 45.5312 63.9688 42.5C62.125 39.4688 59.5 37.1406 56.0938 35.5156C52.6875 33.8594 48.7188 33.0312 44.1875 33.0312H20V88.5ZM42.9688 61.4375H31.375V43.2188H42.9688C45.5625 43.2188 47.5 43.9688 48.7812 45.4688C50.0625 46.9688 50.7031 48.9844 50.7031 51.5156C50.7031 54.0469 50.0625 56.1094 48.7812 57.7031C47.5 60.1875 45.5625 61.4375 42.9688 61.4375Z" fill="#1B5E20"/>
  <path d="M68.8125 88.5H80.1875V33.0312H68.8125V88.5Z" fill="#1B5E20"/>
  <path d="M86.6719 88.5H97.4844L100.828 78.4062H120.141L123.484 88.5H134.672L115.922 33.0312H105.328L86.6719 88.5ZM103.609 69.125L110.25 48.5781H110.719L117.359 69.125H103.609Z" fill="#1B5E20"/>
  <path d="M137.047 88.5H180V78.3125H148.422V33.0312H137.047V88.5Z" fill="#1B5E20"/>
</svg>